<?xml version="1.0" encoding="utf-8"?>
<!-- Generator: Adobe Illustrator 16.0.4, SVG Export Plug-In . SVG Version: 6.00 Build 0)  -->
<!DOCTYPE svg PUBLIC "-//W3C//DTD SVG 1.1//EN" "http://www.w3.org/Graphics/SVG/1.1/DTD/svg11.dtd">
<svg version="1.1" id="Layer_1" xmlns="http://www.w3.org/2000/svg" xmlns:xlink="http://www.w3.org/1999/xlink" x="0px" y="0px"
	 width="60px" height="60px" viewBox="0 0 60 60" enable-background="new 0 0 60 60" xml:space="preserve">
<g>
	<path fill="#00000D" d="M3,0h54c1.656,0,3,1.343,3,3v54c0,1.656-1.344,3-3,3H3c-1.657,0-3-1.344-3-3V3C0,1.343,1.343,0,3,0z"/>
	<path fill="#FFFFFF" d="M45.256,20.842L45.256,20.842L45.256,20.842 M36.176,18.001c-3.344,0-6.055,2.712-6.055,6.058
		c0,0.475,0.054,0.937,0.157,1.381c-5.032-0.253-9.493-2.665-12.479-6.33c-0.522,0.895-0.82,1.935-0.82,3.046
		c0,2.101,1.069,3.956,2.693,5.042c-0.992-0.031-1.926-0.304-2.742-0.758c-0.001,0.026-0.001,0.051-0.001,0.077
		c0,2.935,2.087,5.383,4.857,5.94c-0.508,0.139-1.043,0.213-1.595,0.213c-0.39,0-0.769-0.038-1.139-0.109
		c0.77,2.407,3.006,4.158,5.656,4.207c-2.072,1.625-4.683,2.595-7.52,2.595c-0.488,0-0.97-0.029-1.444-0.085
		c2.68,1.719,5.862,2.722,9.281,2.722c11.137,0,17.227-9.231,17.227-17.237c0-0.263-0.006-0.523-0.018-0.784
		c1.183-0.854,2.209-1.921,3.021-3.136c-1.086,0.481-2.253,0.807-3.479,0.954c1.25-0.75,2.211-1.937,2.662-3.352
		c-1.168,0.693-2.465,1.198-3.844,1.47C39.491,18.736,37.918,18.001,36.176,18.001"/>
</g>
</svg>
