<?xml version="1.0" encoding="utf-8"?>
<!-- Generator: Adobe Illustrator 16.0.4, SVG Export Plug-In . SVG Version: 6.00 Build 0)  -->
<!DOCTYPE svg PUBLIC "-//W3C//DTD SVG 1.1//EN" "http://www.w3.org/Graphics/SVG/1.1/DTD/svg11.dtd">
<svg version="1.1" id="Layer_1" xmlns="http://www.w3.org/2000/svg" xmlns:xlink="http://www.w3.org/1999/xlink" x="0px" y="0px"
	 width="60px" height="60px" viewBox="0 0 60 60" enable-background="new 0 0 60 60" xml:space="preserve">
<g id="nav_in_whitesvg">
	<path id="path-1" d="M3,0h54c1.657,0,3,1.343,3,3v54c0,1.657-1.343,3-3,3H3c-1.657,0-3-1.343-3-3V3C0,1.343,1.343,0,3,0z"/>
	<path id="path-2" fill="#FFFFFF" d="M37.498,41.799v-8.314c0-1.984-0.036-4.534-2.757-4.534c-2.761,0-3.185,2.16-3.185,4.39v8.459
		h-5.301V24.7h5.09v2.336h0.07c0.708-1.344,2.439-2.762,5.02-2.762c5.373,0,6.364,3.542,6.364,8.146v9.379H37.498z M20.276,22.363
		c-1.7,0-3.076-1.382-3.076-3.083c0-1.699,1.376-3.08,3.076-3.08c1.697,0,3.075,1.381,3.075,3.08
		C23.351,20.981,21.973,22.363,20.276,22.363z M22.928,41.799h-5.305V24.7h5.305V41.799z"/>
</g>
</svg>
