<?xml version="1.0" encoding="utf-8"?>
<!-- Generator: Adobe Illustrator 16.0.4, SVG Export Plug-In . SVG Version: 6.00 Build 0)  -->
<!DOCTYPE svg PUBLIC "-//W3C//DTD SVG 1.1//EN" "http://www.w3.org/Graphics/SVG/1.1/DTD/svg11.dtd">
<svg version="1.1" id="Layer_1" xmlns="http://www.w3.org/2000/svg" xmlns:xlink="http://www.w3.org/1999/xlink" x="0px" y="0px"
	 width="60px" height="60px" viewBox="0 0 60 60" enable-background="new 0 0 60 60" xml:space="preserve">
<g id="nav_fa_whitesvg">
	<path id="path-1" d="M3,0h54c1.657,0,3,1.343,3,3v54c0,1.657-1.343,3-3,3H3c-1.657,0-3-1.343-3-3V3C0,1.343,1.343,0,3,0z"/>
	<path id="path-2" fill="#FFFFFF" d="M31.859,42.502v-10.95h3.68l0.55-4.267h-4.229v-2.724c0-1.236,0.344-2.078,2.117-2.078
		l2.262-0.001v-3.817c-0.391-0.052-1.734-0.168-3.297-0.168c-3.26,0-5.492,1.989-5.492,5.641v3.147H23.76v4.267h3.689v10.95H31.859z
		"/>
</g>
</svg>
